<svg width="1372" height="338" viewBox="0 0 1372 338" fill="none" xmlns="http://www.w3.org/2000/svg">
<path fill-rule="evenodd" clip-rule="evenodd" d="M321.527 220.228C312.869 226.642 303.862 232.57 294.548 237.986C292.243 239.31 289.937 240.633 287.59 241.914L286.736 242.383H286.266H285.967L285.541 242.597C284.943 242.938 284.174 243.322 283.321 243.706C281.481 244.541 279.6 245.282 277.686 245.926C275.637 246.652 273.417 247.25 271.368 247.847C266.952 249.006 262.477 249.932 257.964 250.622C253.354 251.39 248.615 251.945 243.749 252.372C234.059 253.226 223.899 253.567 213.184 253.738C202.469 253.909 191.2 253.994 179.375 254.336C173.484 254.336 167.423 254.805 161.233 255.232L151.884 256.001C148.725 256.299 145.566 256.684 142.279 257.153C129.276 259.026 116.433 261.88 103.86 265.691C91.373 269.339 79.0776 273.613 67.0201 278.497C61.0865 280.93 55.2382 283.449 49.4326 286.053C61.4509 298.239 75.2375 308.543 90.3278 316.618C98.8654 312.349 107.403 308.08 115.941 304.537C125.822 300.354 136.012 296.943 146.42 294.334C148.853 293.737 151.414 293.139 153.976 292.627C156.537 292.115 159.098 291.645 161.66 291.218C166.782 290.322 171.905 289.596 176.985 288.956C187.144 287.632 197.176 286.693 206.866 285.583C216.557 284.474 226.204 283.364 235.595 281.742C240.248 280.888 244.901 279.949 249.512 278.796C254.243 277.642 258.903 276.216 263.471 274.527C265.861 273.673 268.252 272.692 270.728 271.582L274.527 269.703C275.808 269.063 277.174 268.295 278.796 267.441C280.388 266.533 281.927 265.535 283.406 264.453C283.833 264.197 284.26 263.812 284.729 263.514L286.01 263.044L286.394 262.745L286.693 262.489L287.12 262.105L287.931 261.337L294.548 255.019C303.484 246.481 312.334 237.83 321.1 229.064C325.369 224.497 330.022 219.929 334.461 215.276C335.144 213.056 335.742 211.007 336.297 208.574C331.43 212.672 326.507 216.557 321.527 220.228Z" fill="#00F7FF"/>
<path fill-rule="evenodd" clip-rule="evenodd" d="M299.841 164.904L292.67 164.648H290.877H289.98H289.297C288.486 164.648 287.504 164.648 286.523 164.648C282.254 164.648 277.985 164.093 273.119 163.538C263.684 162.428 253.738 160.721 243.493 158.757C233.248 156.793 222.704 154.488 211.776 152.183C200.848 149.878 189.621 147.445 178.052 145.182C172.247 144.072 166.398 142.962 160.422 141.938L151.372 140.444L146.847 139.718L142.151 138.822C129.601 137.114 116.88 136.132 103.946 135.663C91.011 135.193 77.9485 135.279 64.7152 135.663C51.4819 136.047 38.0351 137.071 24.4603 138.267C16.9899 138.907 9.47676 139.675 1.96365 140.444C0.658878 149.062 0.00248486 157.767 0 166.484C0.0123482 173.618 0.45426 180.746 1.32333 187.828C10.9282 186.205 20.2769 184.626 29.5402 183.217C42.3466 181.168 55.153 179.375 67.6607 177.924C80.1683 176.473 92.2917 175.405 104.202 174.85C116.112 174.295 127.766 174.039 138.992 174.509H143.261H147.53L156.068 175.021L172.801 176.345C183.858 177.326 194.7 178.436 205.33 179.461C215.959 180.485 226.375 181.51 236.62 182.235C246.865 182.961 256.854 183.431 267.014 183.303C272.137 183.303 277.217 183.047 282.894 182.406C284.345 182.406 285.797 182.065 287.419 181.766H288.017H288.315H288.572L289.468 181.51L291.304 181.04L298.561 179.077C308.208 176.515 317.6 173.911 326.777 171.393L341.59 167.124V166.099C341.59 165.075 341.59 164.05 341.59 163.026C337.065 163.495 332.412 163.837 327.759 164.05C318.581 165.075 309.361 165.16 299.841 164.904Z" fill="#00F7FF"/>
<path fill-rule="evenodd" clip-rule="evenodd" d="M294.89 275.125C292.755 277.088 290.621 279.009 288.401 280.888L287.59 281.613L287.248 281.912L286.95 282.168L286.565 282.51L284.602 284.089L282.126 285.797L279.437 287.504C277.558 288.614 275.595 289.681 273.588 290.706C269.576 292.712 265.307 294.505 260.782 296.17C256.257 297.835 251.903 299.286 247.25 300.439C237.986 303.171 228.211 305.476 217.966 307.739C207.72 310.001 196.963 312.007 185.907 314.483C180.4 315.679 174.765 316.874 169.13 318.197C166.27 318.837 163.41 319.478 160.593 320.203L156.324 321.228L152.055 322.381C143.048 324.771 134.084 327.589 125.247 330.918C162.09 341.106 201.285 338.654 236.57 323.951C271.856 309.249 301.196 283.146 319.905 249.811C311.538 259.003 303.2 267.441 294.89 275.125Z" fill="#00F7FF"/>
<path fill-rule="evenodd" clip-rule="evenodd" d="M300.055 68.7279L303.342 71.5453L306.671 74.1492L313.331 79.4426C316.02 81.577 318.667 83.7114 321.313 86.0592C309.736 64.4547 293.651 45.59 274.149 30.7423C254.647 15.8946 232.182 5.41054 208.275 0C235.418 17.8557 261.608 37.1202 286.736 57.7143L300.055 68.7279Z" fill="#00F7FF"/>
<path fill-rule="evenodd" clip-rule="evenodd" d="M310.13 98.3961L303.428 93.5296C302.318 92.7613 301.208 91.9075 300.055 91.1391L296.64 88.962C292.073 86.0592 287.462 83.1564 282.809 80.4244C244.637 56.9369 205.11 35.7266 164.435 16.9045C152.596 11.4404 140.629 6.18978 128.534 1.15259C108.456 6.30703 89.49 15.0886 72.5703 27.0643C101.2 34.4066 128.947 42.4462 155.812 51.183C197.863 64.8093 239.184 80.5964 279.608 98.4815C284.389 100.616 289.127 102.75 293.823 104.927L297.366 106.55L300.866 107.916C303.257 108.812 305.562 109.751 307.91 110.733C317.216 114.489 326.308 118.531 335.188 122.856L335.999 123.283C335.316 120.594 334.547 117.99 333.736 115.386C325.938 109.836 318.07 104.173 310.13 98.3961Z" fill="#00F7FF"/>
<path fill-rule="evenodd" clip-rule="evenodd" d="M331.943 139.334C323.064 136.517 313.971 133.4 304.708 130.071L297.707 127.552L294.207 126.271L290.749 125.247L276.363 120.978C256.897 115.13 236.535 108.983 215.404 102.75C204.818 99.6768 194.06 96.5179 183.047 93.4016L166.484 88.7059L157.946 86.4008L153.677 85.2482L149.409 84.1383C143.56 82.7723 137.798 81.449 131.949 80.1683L114.319 76.3691C102.509 73.8932 90.4849 71.4884 78.2476 69.1548C64.5447 66.5508 50.6284 63.9895 36.4986 61.599C26.1453 74.8375 17.8156 89.5403 11.7822 105.226C32.1871 107.105 52.1083 109.068 71.5456 111.117C84.352 112.441 96.5608 113.807 108.77 115.386L126.869 117.52C132.803 118.203 138.737 118.929 144.457 119.698L148.726 120.252L152.994 120.893L161.532 122.259L178.607 125.034L211.05 130.284C232.693 133.827 253.44 137.2 273.375 140.188L288.23 142.322L291.987 142.834C293.182 142.834 294.42 142.834 295.615 143.048L302.83 143.475C312.392 144.072 321.726 144.812 330.833 145.695L340.353 146.676L339.712 141.767C337.236 140.999 334.547 140.188 331.943 139.334Z" fill="#00F7FF"/>
<path fill-rule="evenodd" clip-rule="evenodd" d="M324.174 191.029C315.107 194.537 305.859 197.558 296.469 200.079L289.297 201.915L287.505 202.342H287.035H286.779H286.523L284.047 202.982C282.169 203.366 280.12 203.708 277.942 204.006C275.765 204.305 273.674 204.519 271.283 204.689C266.673 205.074 261.934 205.202 257.111 205.244C252.287 205.287 247.25 205.244 242.255 204.903C232.095 204.433 221.551 203.58 210.623 202.598C199.695 201.616 188.297 200.463 176.473 199.524C170.539 199.012 164.563 198.585 158.458 198.201C155.428 198.201 152.354 197.817 149.238 197.689H144.585H139.761C126.633 197.452 113.503 198.023 100.445 199.396C87.2547 200.762 74.064 202.897 60.8307 205.543C47.5974 208.19 34.1507 211.391 21.3442 214.892L8.19629 218.52C13.088 233.81 20.1002 248.337 29.0281 261.678L36.5412 258.903C48.2804 254.634 59.9343 250.793 71.5027 247.378C83.0712 243.962 94.6397 241.102 105.995 238.84C117.007 236.645 128.14 235.106 139.334 234.23L143.39 233.973H147.658C150.433 233.973 153.208 233.717 155.983 233.589C161.489 233.589 166.953 233.248 172.375 233.162C183.218 233.162 193.719 233.162 204.177 232.821C214.636 232.479 224.625 232.479 234.571 231.882C239.566 231.583 244.475 231.199 249.341 230.644C254.208 230.089 259.16 229.363 264.154 228.424C266.673 227.912 269.191 227.357 271.795 226.716C274.399 226.076 277.046 225.222 279.991 224.198C281.443 223.686 282.98 223.088 284.644 222.362L285.285 222.063L285.968 221.765L286.608 221.466L287.078 221.21L288.871 220.185L295.957 215.916C305.391 210.367 314.654 204.775 323.704 199.055C329.396 195.526 334.959 191.954 340.395 188.34L340.907 184.071C335.23 186.504 329.766 188.852 324.174 191.029Z" fill="#00F7FF"/>
<path d="M551.574 220.309L588.165 243.687C571.563 270.452 545.136 288.07 507.19 288.07C453.319 288.07 415.373 248.091 415.373 197.609C415.373 147.127 453.319 106.809 507.19 106.809C545.475 106.809 572.241 125.104 588.503 152.209L551.574 175.248C542.765 160.679 530.229 149.837 508.884 149.837C481.44 149.837 462.806 169.149 462.806 197.609C462.806 226.069 481.44 245.719 508.884 245.719C530.229 245.719 542.765 234.878 551.574 220.309ZM773.153 246.736C756.213 272.146 729.447 288.07 690.823 288.07C635.259 288.07 599.345 249.107 599.345 197.609C599.345 147.465 636.614 106.809 691.162 106.809C746.049 106.809 779.252 144.755 779.252 195.237C779.252 202.013 778.574 210.822 778.574 211.839H645.762C650.844 233.861 667.446 248.091 691.84 248.091C712.846 248.091 728.092 238.943 737.917 225.052L773.153 246.736ZM690.823 145.433C668.801 145.433 653.554 157.291 647.456 176.942H731.819C726.737 155.936 709.796 145.433 690.823 145.433ZM966.273 246.736C949.333 272.146 922.567 288.07 883.943 288.07C828.379 288.07 792.465 249.107 792.465 197.609C792.465 147.465 829.734 106.809 884.282 106.809C939.169 106.809 972.372 144.755 972.372 195.237C972.372 202.013 971.694 210.822 971.694 211.839H838.882C843.964 233.861 860.566 248.091 884.96 248.091C905.966 248.091 921.212 238.943 931.037 225.052L966.273 246.736ZM883.943 145.433C861.921 145.433 846.674 157.291 840.576 176.942H924.939C919.857 155.936 902.917 145.433 883.943 145.433ZM1036.07 284.005H988.635V51.9218H1036.07V284.005ZM1103.83 284.005H1055.04V234.878H1103.83V284.005ZM1211.91 151.192C1186.16 151.192 1166.17 172.198 1166.17 197.948C1166.17 224.036 1186.16 244.703 1211.91 244.703C1239.01 244.703 1259.34 224.036 1259.34 197.948C1259.34 172.198 1238.34 151.192 1211.91 151.192ZM1258.66 284.005V271.13C1246.47 280.617 1227.49 286.376 1207.84 286.376C1160.41 286.376 1120.09 248.091 1120.09 197.948C1120.09 147.804 1160.41 108.503 1207.84 108.503C1227.49 108.503 1246.47 114.601 1258.66 124.088V110.197H1305.76V284.005H1258.66ZM1371.83 95.2891H1324.73V51.9218H1371.83V95.2891ZM1371.83 284.005H1324.73V110.197H1371.83V284.005Z" fill="white"/>
</svg>
